<svg width="24" height="24" viewBox="0 0 24 24" fill="none" xmlns="http://www.w3.org/2000/svg" aria-hidden="true">
<path d="M3 7.5C3 6.39543 3.89543 5.5 5 5.5H7.5L9 3.5H15L16.5 5.5H19C20.1046 5.5 21 6.39543 21 7.5V18C21 19.1046 20.1046 20 19 20H5C3.89543 20 3 19.1046 3 18V7.5Z" stroke="currentColor" stroke-width="2" stroke-linecap="round" stroke-linejoin="round"/>
<path d="M9.5 13.5L11 12L9.5 10.5" stroke="currentColor" stroke-width="1.6" stroke-linecap="round" stroke-linejoin="round"/>
<path d="M14.5 12.5L13 14L14.5 15.5" stroke="currentColor" stroke-width="1.6" stroke-linecap="round" stroke-linejoin="round"/>
<path d="M11 12C11 12 11.5 14 13 14" stroke="currentColor" stroke-width="1.6" stroke-linecap="round"/>
<path d="M13 14C13 14 13 11.5 11 11.5" stroke="currentColor" stroke-width="1.6" stroke-linecap="round" opacity="0"/>
</svg>
