<svg xmlns="http://www.w3.org/2000/svg" fill="none" viewBox="0 0 24 24" stroke-width="1.5" stroke="currentColor" aria-hidden="true" data-slot="icon" class="size-4">
<path stroke-linecap="round" stroke-linejoin="round" d="M19.5 14.25v-2.625a3.375 3.375 0 0 0-3.375-3.375h-1.5A1.125 1.125 0 0 1 13.5 7.125v-1.5a3.375 3.375 0 0 0-3.375-3.375H8.25m2.25 12 2.25-2.25m0 0 2.25 2.25M12.75 12v6M6.75 2.25H8.25c4.142 0 7.5 3.358 7.5 7.5v7.5a2.25 2.25 0 0 1-2.25 2.25h-7.5a2.25 2.25 0 0 1-2.25-2.25V4.5a2.25 2.25 0 0 1 2.25-2.25Z"></path></svg>