<?xml version="1.0" encoding="utf-8"?>
<svg width="24px" height="24px" viewBox="0 0 24 24" fill="none" xmlns="http://www.w3.org/2000/svg">
<path d="M9 17.5C9 18.8807 7.88071 20 6.5 20C5.11929 20 4 18.8807 4 17.5C4 16.1193 5.11929 15 6.5 15C7.88071 15 9 16.1193 9 17.5ZM9 17.5H15.125M19 20V17.75C19 17.6119 18.8881 17.5 18.75 17.5M15.125 17.5H18.75M15.125 17.5V20M18.75 17.5C19.4404 17.5 20 16.9404 20 16.25C20 15.5596 19.4404 15 18.75 15C18.0596 15 17.5 15.5596 17.5 16.25C17.5 16.9404 18.0596 17.5 18.75 17.5ZM5 11H19C20.1046 11 21 10.1046 21 9V6C21 4.89543 20.1046 4 19 4H5C3.89543 4 3 4.89543 3 6V9C3 10.1046 3.89543 11 5 11Z" stroke="currentColor" stroke-width="2" stroke-linecap="round" stroke-linejoin="round"/>
<circle cx="7.5" cy="7.5" r="1.5" fill="currentColor"/>
<circle cx="12" cy="7.5" r="1.5" fill="currentColor"/>
<circle cx="16.5" cy="7.5" r="1.5" fill="currentColor"/>
</svg>
