<svg width="24" height="24" viewBox="0 0 24 24" fill="none" xmlns="http://www.w3.org/2000/svg">
  <circle cx="12" cy="12" r="9.2" stroke="currentColor" stroke-width="1.3" opacity="0.4" fill="none"/>
  <circle cx="12" cy="12" r="6" stroke="currentColor" stroke-width="1.3" opacity="0.4" fill="none"/>
  <circle cx="12" cy="12" r="3" stroke="currentColor" stroke-width="1.3" opacity="0.4" fill="none"/>
  <path d="M12 12L12 2.8" stroke="currentColor" stroke-width="1" opacity="0.4"/>
  <path d="M12 12L21.2 12" stroke="currentColor" stroke-width="1" opacity="0.4"/>
  <path d="M12 12L12 21.2" stroke="currentColor" stroke-width="1" opacity="0.4"/>
  <path d="M12 12L2.8 12" stroke="currentColor" stroke-width="1" opacity="0.4"/>
  <path d="M12 12L12 4.5A7.5 7.5 0 0 1 19.5 12Z" fill="currentColor" opacity="0.9"/>
  <path d="M12 12L19.5 12A7.5 7.5 0 0 1 12 19.5Z" fill="currentColor" opacity="0.55"/>
  <path d="M12 12L12 19.5A7.5 7.5 0 0 1 4.5 12Z" fill="currentColor" opacity="0.75"/>
  <path d="M12 12L4.5 12A7.5 7.5 0 0 1 12 4.5Z" fill="currentColor" opacity="0.35"/>
</svg>
